<svg xmlns="http://www.w3.org/2000/svg" xml:space="preserve" width="3500" height="3000" style="fill-rule:evenodd;clip-rule:evenodd;stroke-linejoin:round;stroke-miterlimit:2"><path d="M0 0h3500v3000H0z" style="fill:none"/><clipPath id="a"><path d="M0 0h3500v3000H0z"/></clipPath><g clip-path="url(#a)"><path d="M0 0h3499.99v3000H0z" style="fill:#ffd4b6"/><path d="M510.744 2494.14c-146.784 8.472-284.736 35.014-311.202 106.617-36.186 97.894 426.976 128.789 542.413 126.393 181.569-3.769 255.676-29.387 381.14-36.772 128.394 12.132 236.518 12.842 291.406 12.29 30.102 3.355 62.471 7.375 97.494 12.153 36.906 5.035 73.294 9.998 153.624 11.945 51.174 36.694 111.943 57.095 173.775 67.029 159.146 25.564 325.34-18.191 353.01-32.036 89.738-44.865 295.654 49.022 377.749-60.808 89.27-4.06 186.64-8.665 293.027-13.874 149.649-7.332 311.812-206.687 74.796-192.973-35.064 5.544-69.052 10.356-102.238 14.511 68.582-35.863 136.317-88.159 178.413-163.929 71.904-129.437-38.193-311.687 52.133-399.705 218.748-213.137 239.333-219.15 235.847-449.348-2.441-161.263-240.242-243.574-268.123-253.226-171.564-59.39-81.363-122.629-84.408-305.361-2.365-141.883-275.218-701.47-667.819-518.864-292.758 136.165-370.809-129.698-717.471-148.956-325.599-18.089-287.454 108.082-382.327 136.543-51.128 15.339-563.812-206.694-690.161 220.952-95.574 323.482 187.136 511.583 74.478 660.37-126.36 166.893-157.649 149.42-213.504 352.532-88.648 322.353 195.86 349.477 158.886 615.686-7.269 52.344-76.146 146.967-.938 238.831" style="fill:#f4bb8e"/><path d="M2483.4 286.783a88.44 88.44 0 0 0-88.439-88.439h-1289.93a88.435 88.435 0 0 0-88.439 88.439v2212.05a88.436 88.436 0 0 0 88.439 88.439h1289.93a88.44 88.44 0 0 0 88.439-88.439z" style="fill:#87786d"/><path d="M2485.9 286.783a90.94 90.94 0 0 0-90.939-90.939h-1289.93a90.94 90.94 0 0 0-90.939 90.939v2212.05a90.94 90.94 0 0 0 90.939 90.939h1289.93a90.94 90.94 0 0 0 64.303-26.636 90.94 90.94 0 0 0 26.636-64.303zm-5 0v2212.05a85.943 85.943 0 0 1-85.939 85.939h-1289.93a85.94 85.94 0 0 1-85.939-85.939V286.783a85.937 85.937 0 0 1 85.939-85.939h1289.93a85.94 85.94 0 0 1 85.939 85.939" style="fill:#464646"/><path d="M2402.27 350.779c0-22.098-8.287-43.292-23.038-58.918s-34.757-24.404-55.618-24.404h-1147.24c-20.861 0-40.868 8.778-55.619 24.404s-23.038 36.82-23.038 58.918v2084.05c0 22.098 8.287 43.291 23.038 58.917s34.758 24.405 55.619 24.405h1147.24c20.861 0 40.867-8.779 55.618-24.405s23.038-36.819 23.038-58.917z" style="fill:#d3d3d3"/><path d="M2404.77 350.779c0-22.744-8.538-44.552-23.72-60.634-15.232-16.135-35.895-25.188-57.436-25.188h-1147.24c-21.541 0-42.205 9.053-57.437 25.188-15.181 16.082-23.72 37.89-23.72 60.634v2084.05c0 22.743 8.539 44.551 23.72 60.633 15.232 16.135 35.896 25.189 57.437 25.189h1147.24c21.541 0 42.204-9.054 57.436-25.189 15.182-16.082 23.72-37.89 23.72-60.633zm-5 0v2084.05c0 21.453-8.036 42.031-22.356 57.201-14.27 15.117-33.619 23.621-53.8 23.621h-1147.24c-20.181 0-39.531-8.504-53.801-23.621-14.32-15.17-22.356-35.748-22.356-57.201V350.779c0-21.453 8.036-42.032 22.356-57.201 14.27-15.117 33.62-23.621 53.801-23.621h1147.24c20.181 0 39.53 8.504 53.8 23.621 14.32 15.169 22.356 35.748 22.356 57.201" style="fill:#464646"/><path d="M1867.82 437.468c0-51.159-41.473-92.632-92.632-92.632h-423.331c-51.159 0-92.632 41.473-92.632 92.632v572.072c0 51.16 41.473 92.633 92.632 92.633h423.331c51.159 0 92.632-41.473 92.632-92.633z" style="fill:#f5f5f5"/><path d="M1870.32 437.468c0-52.54-42.592-95.132-95.132-95.132h-423.331c-52.54 0-95.132 42.592-95.132 95.132v572.072c0 52.541 42.592 95.133 95.132 95.133h423.331c52.54 0 95.132-42.592 95.132-95.133zm-5 0v572.072c0 49.779-40.353 90.133-90.132 90.133h-423.331c-49.779 0-90.132-40.354-90.132-90.133V437.468c0-49.778 40.353-90.132 90.132-90.132h423.331c49.779 0 90.132 40.354 90.132 90.132" style="fill:#464646"/><path d="M2336.11 374.206c0-16.209-13.16-29.37-29.37-29.37h-300.684c-16.21 0-29.37 13.161-29.37 29.37v58.741c0 16.21 13.16 29.37 29.37 29.37h300.684c16.21 0 29.37-13.16 29.37-29.37z" style="fill:#f5f5f5"/><path d="M2338.61 374.206c0-17.589-14.28-31.87-31.87-31.87h-300.684c-17.589 0-31.87 14.281-31.87 31.87v58.741c0 17.59 14.281 31.87 31.87 31.87h300.684c17.59 0 31.87-14.28 31.87-31.87zm-5 0v58.741c0 14.83-12.04 26.87-26.87 26.87h-300.684c-14.83 0-26.87-12.04-26.87-26.87v-58.741c0-14.83 12.04-26.87 26.87-26.87h300.684c14.83 0 26.87 12.04 26.87 26.87" style="fill:#464646"/><path d="M2257.73 1270.73c0-16.209-13.16-29.37-29.37-29.37h-939.765c-16.21 0-29.37 13.161-29.37 29.37v58.741c0 16.21 13.16 29.37 29.37 29.37h939.765c16.21 0 29.37-13.16 29.37-29.37z" style="fill:#f5f5f5"/><path d="M2260.23 1270.73c0-17.589-14.28-31.87-31.87-31.87h-939.765c-17.59 0-31.87 14.281-31.87 31.87v58.741c0 17.589 14.28 31.87 31.87 31.87h939.765c17.59 0 31.87-14.281 31.87-31.87zm-5 0v58.741c0 14.83-12.04 26.87-26.87 26.87h-939.765c-14.83 0-26.87-12.04-26.87-26.87v-58.741c0-14.83 12.04-26.87 26.87-26.87h939.765c14.83 0 26.87 12.04 26.87 26.87" style="fill:#464646"/><path d="M2257.73 1505.69c0-16.21-13.16-29.37-29.37-29.37h-939.765c-16.21 0-29.37 13.16-29.37 29.37v58.74c0 16.21 13.16 29.371 29.37 29.371h939.765c16.21 0 29.37-13.161 29.37-29.371z" style="fill:#f5f5f5"/><path d="M2260.23 1505.69c0-17.59-14.28-31.87-31.87-31.87h-939.765c-17.59 0-31.87 14.28-31.87 31.87v58.74c0 17.59 14.28 31.871 31.87 31.871h939.765c17.59 0 31.87-14.281 31.87-31.871zm-5 0v58.74c0 14.831-12.04 26.871-26.87 26.871h-939.765c-14.83 0-26.87-12.04-26.87-26.871v-58.74c0-14.83 12.04-26.87 26.87-26.87h939.765c14.83 0 26.87 12.04 26.87 26.87" style="fill:#464646"/><path d="M2257.73 1740.65c0-16.21-13.16-29.37-29.37-29.37h-939.765c-16.21 0-29.37 13.16-29.37 29.37v58.74c0 16.21 13.16 29.37 29.37 29.37h939.765c16.21 0 29.37-13.16 29.37-29.37z" style="fill:#f5f5f5"/><path d="M2260.23 1740.65c0-17.59-14.28-31.87-31.87-31.87h-939.765c-17.59 0-31.87 14.28-31.87 31.87v58.74c0 17.59 14.28 31.87 31.87 31.87h939.765c17.59 0 31.87-14.28 31.87-31.87zm-5 0v58.74c0 14.83-12.04 26.87-26.87 26.87h-939.765c-14.83 0-26.87-12.04-26.87-26.87v-58.74c0-14.83 12.04-26.87 26.87-26.87h939.765c14.83 0 26.87 12.04 26.87 26.87" style="fill:#464646"/><path d="M2257.73 1975.61c0-16.209-13.16-29.37-29.37-29.37h-939.765c-16.21 0-29.37 13.161-29.37 29.37v58.741c0 16.21 13.16 29.37 29.37 29.37h939.765c16.21 0 29.37-13.16 29.37-29.37z" style="fill:#f5f5f5"/><path d="M2260.23 1975.61c0-17.589-14.28-31.87-31.87-31.87h-939.765c-17.59 0-31.87 14.281-31.87 31.87v58.741c0 17.589 14.28 31.87 31.87 31.87h939.765c17.59 0 31.87-14.281 31.87-31.87zm-5 0v58.741c0 14.83-12.04 26.87-26.87 26.87h-939.765c-14.83 0-26.87-12.04-26.87-26.87v-58.741c0-14.83 12.04-26.87 26.87-26.87h939.765c14.83 0 26.87 12.04 26.87 26.87" style="fill:#464646"/><path d="M2257.73 2237.03c0-25.458-20.668-46.126-46.125-46.126H1305.35c-25.457 0-46.125 20.668-46.125 46.126v92.251c0 25.457 20.668 46.125 46.125 46.125h906.255c25.457 0 46.125-20.668 46.125-46.125z" style="fill:#fff2c0"/><path d="M2260.23 2237.03c0-26.838-21.788-48.626-48.625-48.626H1305.35c-26.837 0-48.625 21.788-48.625 48.626v92.251c0 26.837 21.788 48.625 48.625 48.625h906.255c26.837 0 48.625-21.788 48.625-48.625zm-5 0v92.251c0 24.077-19.548 43.625-43.625 43.625H1305.35c-24.077 0-43.625-19.548-43.625-43.625v-92.251c0-24.078 19.548-43.626 43.625-43.626h906.255c24.077 0 43.625 19.548 43.625 43.626" style="fill:#464646"/><path d="m1982.97 685.865 121.425 121.425c8.301 8.301 21.78 8.301 30.081 0l195.41-195.41c8.301-8.301 8.301-21.78 0-30.081l-30.081-30.08c-8.301-8.301-21.78-8.301-30.081 0l-149.738 149.738-76.304-76.304c-8.377-8.377-21.979-8.377-30.356 0l-30.356 30.356c-8.377 8.377-8.377 21.979 0 30.356" style="fill:#53da83"/><path d="m1981.2 687.633 121.425 121.425c9.277 9.277 24.34 9.277 33.616 0l195.41-195.41c9.277-9.277 9.277-24.34 0-33.616l-30.08-30.081c-9.277-9.277-24.34-9.277-33.616 0l-147.971 147.97-74.536-74.536c-9.353-9.353-24.539-9.353-33.892 0l-30.356 30.356c-9.353 9.353-9.353 24.539 0 33.892m3.536-3.536c-7.402-7.401-7.402-19.419 0-26.82l30.356-30.357c7.401-7.401 19.419-7.401 26.82 0l76.305 76.305a2.5 2.5 0 0 0 3.535 0l149.738-149.738c7.325-7.326 19.22-7.326 26.545 0l30.081 30.08c7.325 7.326 7.325 19.22 0 26.545l-195.41 195.41c-7.326 7.326-19.22 7.326-26.545 0z" style="fill:#464646"/><path d="m1479.15 612.558-91.566 346.647s127.254 102.775 351.873 0l-77.232-351.873s-100.949 50.517-183.075 5.226" style="fill:#626469"/><path d="M1480.36 610.369a2.5 2.5 0 0 0-3.625 1.551l-91.565 346.647a2.5 2.5 0 0 0 .846 2.583s128.198 103.866 354.484.328a2.5 2.5 0 0 0 1.402-2.809l-77.232-351.873a2.5 2.5 0 0 0-3.56-1.699s-99.666 49.988-180.75 5.272m.401 5.89c74.364 38.883 162.74 2.371 179.696-5.333l76.128 346.842c-208.891 94.757-332.467 10.589-346.154.462z" style="fill:#464646"/><path d="m1458.75 544.901 20.403 67.657s82.068 47.033 183.075-5.226l21.41-67.936s-39.155-27.592-16.307-86.818l-55.381-10.452s-42.657 78.388-88.897 1.742l-51.398 12.124s31.731 55.812-12.905 88.909" style="fill:#e36f59"/><path d="M1457.26 542.893a2.5 2.5 0 0 0-.904 2.73l20.402 67.657c.185.612.596 1.13 1.151 1.447 0 0 83.142 47.766 185.467-5.174a2.5 2.5 0 0 0 1.236-1.469l21.41-67.936a2.5 2.5 0 0 0-.945-2.795s-37.472-26.699-15.414-83.875a2.5 2.5 0 0 0-1.869-3.357l-55.382-10.451a2.5 2.5 0 0 0-2.659 1.261s-7.306 13.423-19.105 23.482c-7.593 6.473-17.073 11.612-27.719 10.396-11.658-1.332-24.45-10.209-37.736-32.232a2.5 2.5 0 0 0-2.715-1.142l-51.398 12.124a2.5 2.5 0 0 0-1.6 3.669s7.695 13.557 9.981 31.13c2.256 17.344-.803 38.669-22.201 54.535m4.384 2.948c21.969-17.11 25.175-39.679 22.775-58.128-1.768-13.587-6.601-24.904-9.081-30.021l46.526-10.975c14.133 22.808 28.091 31.643 40.498 33.06 12.076 1.379 22.917-4.217 31.53-11.559 9.987-8.514 16.937-19.303 19.333-23.307l50.727 9.574c-18.848 52.396 9.813 80.057 16.78 85.814l-20.576 65.287c-93.314 47.77-170.041 9.973-178.906 5.269zm44.806 129.981a2.5 2.5 0 0 0-3.218 1.976l-47.853 289.163a2.5 2.5 0 0 0 1.715 2.792l5.234 1.65a2.503 2.503 0 0 0 3.218-1.977l47.853-289.162a2.5 2.5 0 0 0-1.715-2.793zm1.245 5.634.417.132-47.029 284.18-.417-.132zm55.645 1.625a2.5 2.5 0 0 0-2.921 2.442l-2.563 289.163a2.5 2.5 0 0 0 2.079 2.486l5.298.906a2.5 2.5 0 0 0 2.921-2.442l2.563-289.162a2.5 2.5 0 0 0-2.078-2.487zm2.053 5.424.305.052-2.518 284.098-.305-.052zm53.557-11.988a2.497 2.497 0 0 0-2.48 2.9l44.852 276.969a2.5 2.5 0 0 0 2.455 2.1l5.23.027a2.502 2.502 0 0 0 2.481-2.899l-44.852-276.969a2.5 2.5 0 0 0-2.455-2.101zm2.927 5.015.161.001 44.042 271.965-.161-.001z" style="fill:#464646"/><path d="m507.253 2229.75 86.064-50.69 287.42 3.377-3.804 352.539-51.153 52.298-279.63-17.564z" style="fill:#c78500"/><path d="M506.217 2227.99a2.04 2.04 0 0 0-.992 1.991l38.897 339.96a2.04 2.04 0 0 0 1.9 1.806l279.63 17.564a2.04 2.04 0 0 0 1.588-.61l51.153-52.298c.368-.376.576-.88.582-1.406l3.804-352.539a2.04 2.04 0 0 0-2.018-2.064l-287.42-3.376a2.04 2.04 0 0 0-1.06.282zm3.216 2.845 84.43-49.727 284.81 3.345-3.772 349.68-49.927 51.044-276.99-17.398z" style="fill:#464646"/><path d="m507.253 2229.75 27.629-16.264 220.55-34.426c.391 5.369 7.956 46.909 7.464 50.69-.381 2.951-6.75 20.547-7.464 21.91l-237.895 67.967z" style="fill:#b87f0c"/><path d="m561.987 2206.38 303.091.959.167 194.377-8.168-17.437-10.399 24.232-3.474-188.763-309.035-1.492z" style="fill:#f1ae27"/><path d="M561.994 2204.34a2.05 2.05 0 0 0-.809.164l-27.817 11.877a2.04 2.04 0 0 0 .791 3.919l307.04 1.482 3.437 186.769a2.042 2.042 0 0 0 3.918.768l8.605-20.05 6.237 13.315a2.043 2.043 0 0 0 3.891-.868l-.167-194.377a2.043 2.043 0 0 0-2.036-2.04zm.408 4.085 300.636.951.157 183.153-4.269-9.114a2.042 2.042 0 0 0-3.725.061l-6.657 15.51-3.299-179.274a2.04 2.04 0 0 0-2.031-2.004l-299.174-1.444z" style="fill:#464646"/><path d="M507.253 2229.75H825.78v357.513H507.253z" style="fill:#d4981f"/><path d="M827.822 2229.75a2.04 2.04 0 0 0-2.042-2.042H507.253a2.04 2.04 0 0 0-2.041 2.042v357.514c0 1.127.914 2.041 2.041 2.041H825.78a2.04 2.04 0 0 0 2.042-2.041zm-4.084 2.042v353.43H509.295v-353.43z" style="fill:#464646"/><path d="M507.253 2229.75H762.92l-7.488 89.877-248.179 3.174z" style="fill:#c38e23"/><path d="M507.253 2227.71a2.04 2.04 0 0 0-2.041 2.042v93.051a2.04 2.04 0 0 0 2.067 2.041l248.179-3.174a2.04 2.04 0 0 0 2.008-1.872l7.489-89.876a2.04 2.04 0 0 0-2.035-2.212zm2.042 4.084h251.406l-7.15 85.817-244.256 3.124z" style="fill:#464646"/><path d="m436.439 1920.81 62.443-26.702 256.276-1.04.271 291.501-44.14 45.193-241.287-15.178z" style="fill:#c78500"/><path d="M435.636 1918.93a2.04 2.04 0 0 0-1.226 2.109l33.564 293.775a2.04 2.04 0 0 0 1.9 1.806l241.287 15.178a2.04 2.04 0 0 0 1.589-.611l44.139-45.193a2.04 2.04 0 0 0 .581-1.429l-.27-291.501a2.044 2.044 0 0 0-2.05-2.04l-256.276 1.04a2 2 0 0 0-.795.165zm3.004 3.157 60.664-25.941 253.814-1.03.268 288.62-42.903 43.928-238.646-15.012z" style="fill:#464646"/><path d="m483.667 1900.61 261.532.829.144 167.97-7.048-15.068-8.974 20.94-2.997-163.119-266.66-1.289z" style="fill:#f1ae27"/><path d="M483.674 1898.57a2 2 0 0 0-.809.164l-24.004 10.263a2.04 2.04 0 0 0 .793 3.919l264.665 1.279 2.961 161.124a2.043 2.043 0 0 0 3.918.767l7.178-16.751 5.117 10.94a2.04 2.04 0 0 0 3.892-.867l-.145-167.97a2.04 2.04 0 0 0-2.035-2.04zm.409 4.084 259.076.821.134 156.734-3.149-6.732a2.041 2.041 0 0 0-3.726.061l-5.23 12.204-2.823-153.617a2.04 2.04 0 0 0-2.031-2.004l-256.812-1.241z" style="fill:#464646"/><path d="M436.439 1920.81H711.29v308.943H436.439z" style="fill:#d4981f"/><path d="M713.331 1920.81a2.04 2.04 0 0 0-2.042-2.042h-274.85a2.04 2.04 0 0 0-2.042 2.042v308.943c0 1.128.914 2.042 2.042 2.042h274.85a2.04 2.04 0 0 0 2.042-2.042zm-4.084 2.041v304.86H438.48v-304.86z" style="fill:#464646"/><path d="m1239.58 1108.19 178.857-136.672 11.171-14.728-19.966-6.322-195.42 10.358s-20.02 107.589 25.358 147.364" style="fill:#212062"/><path d="m1342.11 2358.8 5.61 147.509-94.433 12.747-13.649-141.72zm-219.06-55.329-89.956 116.944-80.71-50.72 80.079-117.649z" style="fill:#ffb45a"/><path d="m1344.06 2358.74 5.609 147.497a1.955 1.955 0 0 1-1.692 2.013l-94.432 12.747a1.9 1.9 0 0 1-1.477-.398 1.98 1.98 0 0 1-.738-1.341l-13.638-141.721a1.95 1.95 0 0 1 1.59-2.115l102.472-18.524a1.9 1.9 0 0 1 1.567.398c.443.352.716.876.739 1.444m-3.827 2.399-98.487 17.808 13.286 137.911 90.663-12.247zm-215.642-56.481-89.954 116.931a1.947 1.947 0 0 1-2.588.467l-80.714-50.716a1.97 1.97 0 0 1-.873-1.251 1.95 1.95 0 0 1 .297-1.501l80.082-117.648a1.956 1.956 0 0 1 2.579-.603l90.58 51.433c.5.273.841.75.954 1.308a1.97 1.97 0 0 1-.363 1.58m-4.474-.602-87.06-49.432-77.928 114.487 77.495 48.692z" style="fill:#505050"/><path d="M1249.04 2503.32c17.352 7.198 76.98 9.529 96.647-29.861 7.2-14.407 26.561 68.876 103.586 19.786 2.43-1.546 74.288-53.831 85.178 30.714.795 6.129-4.259 67.614-26.538 75.347-9.789 3.388-72.857 19.99-137.629 24.687-60.878 4.412-119.677-17.091-130.646-20.673-21.939-7.187-2.987-100.193 9.402-100m-289.862-148.463c8.726 16.658 53.063 56.663 93.35 39.003 14.735-6.47-23.614 69.934 66.946 81.578 2.861.375 91.491 6.243 45.831 78.189-3.305 5.219-46.479 49.226-68.543 40.891-9.693-3.661-68.769-31.328-121.534-69.228-49.605-35.615-81.046-89.822-87.179-99.613-12.268-19.581 61.739-78.905 71.129-70.82" style="fill:#505050"/><path d="M1249.79 2501.49c8.482 3.513 27.276 5.788 46.365 2.422 18.941-3.332 38.222-12.236 47.761-31.34.715-1.433 1.601-2.194 2.475-2.536.977-.386 2.056-.352 3.225.217 1.068.511 2.306 1.58 3.691 3.127 6.518 7.255 17.726 26.29 38.756 31.953 13.945 3.764 32.159 1.535 56.142-13.748 1.045-.671 14.535-10.405 30.66-15.135 11.061-3.252 23.313-4.105 33.783 1.558 11.106 6.004 20.383 19.422 23.767 45.701.568 4.367-1.737 36.354-10.981 57.846-4.144 9.643-9.754 17.148-16.874 19.615-9.823 3.412-73.13 20.082-138.129 24.801-61.24 4.435-120.38-17.159-131.406-20.775-4.486-1.467-7.654-5.947-9.448-12.543-3.736-13.782-1.737-37.184 2.555-56.708 2.873-13.112 6.802-24.471 10.606-30.089 2.101-3.093 4.383-4.548 6.325-4.514.25 0 .5.057.727.148m98.032-27.69a4 4 0 0 0-.363.546c-10.129 20.287-30.501 29.918-50.623 33.466-19.657 3.457-39.018 1.103-48.102-2.479-.443.114-.863.512-1.352 1.012-.942.978-1.896 2.422-2.85 4.23-3.123 5.891-6.177 15.454-8.539 26.211-3.566 16.238-5.564 35.228-3.782 48.737.58 4.322 1.522 8.051 2.976 10.917 1.271 2.49 2.895 4.287 5.064 4.992 10.901 3.571 69.36 24.983 129.896 20.593 64.522-4.685 127.364-21.207 137.107-24.584 3.236-1.126 6.041-3.525 8.505-6.732 3.975-5.163 7.064-12.349 9.46-20.093 6.086-19.616 7.744-42.791 7.278-46.407-3.156-24.448-11.389-37.127-21.723-42.722-9.538-5.162-20.724-4.207-30.796-1.239-15.591 4.571-28.639 14.032-29.638 14.669-22.121 14.089-39.631 17.455-53.496 15.442-20.883-3.036-33.68-18.308-41.72-28.474-2.669-3.377-4.769-6.163-6.473-7.562a5.5 5.5 0 0 0-.829-.523M960.93 2353.947c4.261 8.13 17.261 21.924 34.072 31.567 16.692 9.574 37.196 15.101 56.731 6.527 1.466-.637 2.631-.66 3.528-.364.997.33 1.8 1.035 2.338 2.229.485 1.08.754 2.695.833 4.764.367 9.757-3.175 31.567 9.361 49.397 8.314 11.826 23.731 21.788 51.93 25.415 1.227.159 17.829 1.319 33.227 8.005 10.572 4.594 20.542 11.804 24.971 22.857 4.689 11.735 3.247 27.985-10.947 50.34-2.351 3.719-24.562 26.825-45.411 37.423-9.346 4.754-18.453 6.926-25.505 4.253-9.723-3.673-69.024-31.419-121.984-69.456-49.892-35.831-81.534-90.333-87.701-100.181-2.505-3.991-2.081-9.472.758-15.681 5.938-12.986 22.43-29.69 38.206-41.949 10.591-8.221 20.866-14.441 27.382-16.317 3.583-1.035 6.268-.694 7.749.579.189.171.346.364.462.592m93.013 41.528a3.4 3.4 0 0 0-.621.193c-20.752 9.097-42.558 3.446-60.289-6.72-17.317-9.939-30.689-24.164-35.377-32.738-.415-.194-.994-.16-1.684-.08-1.354.148-3.006.648-4.895 1.422-6.17 2.524-14.616 7.914-23.312 14.668-13.115 10.189-26.791 23.494-34.052 35.035-2.318 3.673-3.975 7.153-4.684 10.28-.621 2.729-.518 5.151.697 7.096 6.097 9.722 37.337 63.634 86.656 99.055 52.571 37.753 111.422 65.328 121.073 68.979 3.202 1.205 6.893 1.148 10.833.273 6.348-1.41 13.309-4.958 20.1-9.37 17.215-11.178 33.294-27.928 35.247-30.999 13.207-20.809 14.978-35.831 10.606-46.747-4.031-10.086-13.229-16.511-22.858-20.696-14.91-6.481-30.978-7.573-32.159-7.721-26-3.343-41.597-11.985-50.967-22.413-14.115-15.715-14.182-35.649-13.864-48.612.105-4.31.272-7.789-.146-9.961a5.3 5.3 0 0 0-.304-.944" style="fill:#464646"/><path d="M1157.33 1588.56s-21.973 39.755-86.075 334.499l-80.468 381.143 122.052 61.007 230.745-364.666-16.364-101.762s-95.795-188.775-114.509-196.405c-18.703-7.63-55.381-113.816-55.381-113.816" style="fill:#484848"/><path d="M1159.2 1587.91a1.977 1.977 0 0 0-3.6-.311s-22.068 39.804-86.276 335.035l-.003.011-80.467 381.144a1.98 1.98 0 0 0 1.05 2.177l122.052 61.007a1.98 1.98 0 0 0 2.555-.711l230.744-364.667c.258-.407.358-.895.282-1.371l-16.364-101.762a2 2 0 0 0-.189-.581s-61.379-120.945-95.521-173.235c-6.06-9.281-11.285-16.421-15.172-20.406-1.89-1.938-3.539-3.172-4.833-3.7-2.016-.823-4.208-2.984-6.605-6.04-3.94-5.022-8.235-12.408-12.589-20.974-17.148-33.736-35.064-85.616-35.064-85.616m-2.086 5.979c4.833 13.56 19.491 53.621 33.625 81.429 4.491 8.835 8.939 16.443 13.002 21.623 2.938 3.745 5.752 6.252 8.224 7.261 1.323.539 3.024 2.169 5.141 4.59 3.549 4.059 7.993 10.277 13.046 18.016 33.121 50.727 91.925 166.211 95.166 172.588l16.196 100.717-229.389 362.524-119.087-59.525 80.151-379.644c53.249-244.837 77.337-313.442 83.926-329.579z" style="fill:#5c5753"/><path d="m1212.71 1589.55-68.962-7.835s-47.557 45.804 25.277 470.329l43.685 347.279 172.956-13.429v-816.562l-72.119-.251z" style="fill:#505050"/><path d="m1212.62 1587.55-68.652-7.8a1.98 1.98 0 0 0-1.595.541s-8.071 7.471-12.669 44.473c-6.713 54.015-6.39 172.542 37.362 427.57l43.679 347.236a1.98 1.98 0 0 0 2.115 1.725l172.956-13.43a1.98 1.98 0 0 0 1.825-1.971v-816.562c0-1.09-.882-1.974-1.971-1.978l-72.119-.25q-.202 0-.4.04zm-.136 3.964c.205.024.413.015.616-.027l100.639-20.428 69.947.243v812.762l-169.253 13.142-43.449-345.409-.013-.088c-43.642-254.372-44.038-372.585-37.343-426.458 3.633-29.233 9.232-39.032 10.961-41.45z" style="fill:#5c5753"/><path d="m1412.84 1386.19 218.028.134 5.673 45.013s-266.998 28.909-272.163 28.655c-5.165-.267 11.572-62.081 5.94-62.308-5.633-.214 42.522-11.494 42.522-11.494" style="fill:#f5ac55"/><path d="M1369.34 1399.51c.07.459.177 1.289.173 2.015-.029 5.506-1.977 16.225-3.936 26.95-1.713 9.375-3.443 18.753-3.994 24.783-.294 3.211-.195 5.588.239 6.747.518 1.385 1.46 1.917 2.452 1.968h.005c5.171.255 272.472-28.663 272.472-28.663a1.977 1.977 0 0 0 1.749-2.213l-5.673-45.013a1.976 1.976 0 0 0-1.959-1.73l-218.029-.133a2 2 0 0 0-.452.052s-39.446 9.296-43.184 11.303c-1.61.864-1.375 2.244-1.176 2.74.11.272.442.898 1.313 1.194m-3.892 58.473a14 14 0 0 1-.091-1.792c.142-5.525 2.146-16.265 4.109-27.006 1.714-9.385 3.402-18.77 3.87-24.8.207-2.674.127-4.771-.192-6.078l.029-.009c8.94-2.837 37.104-9.469 39.893-10.124l216.057.132 5.203 41.29c-23.757 2.572-251.501 27.214-268.878 28.387" style="fill:#464646"/><path d="M1334.76 1201.07s59.98 21.651 103.129 181.738c0 0-52.292 49.33-77.583 48.515l-32.232-206.597z" style="fill:#ba6300"/><path d="M1335.43 1199.21a1.977 1.977 0 0 0-2.574 1.322l-6.686 23.656a2 2 0 0 0-.051.843l32.232 206.597c.146.938.939 1.64 1.889 1.671 7.868.253 18.293-4.073 28.982-10.394 24.216-14.323 50.021-38.659 50.021-38.659.53-.5.742-1.25.553-1.953-43.517-161.451-104.366-183.083-104.366-183.083m.605 4.61c10.519 5.322 61.474 37.632 99.633 178.353-4.636 4.287-27.167 24.736-48.459 37.329-9.205 5.444-18.139 9.461-25.216 9.827l-31.902-204.481z" style="fill:#464646"/><path d="M1283.95 1168.94s-108.374 14.087-138.07 228.757c-3.003 21.651-4.658 70.473-5.885 95.814 0 0-57.644 113.228 76.422 106.933 0 0 248.979 13.152 186.21-74.269 0 0-29.535-146.628-30.697-207.573 0 0 5.459-84.026-46.672-127.743l-31.151-27.131z" style="fill:#f26131"/><path d="M1283.34 1167.04c-6.875 1.099-110.458 21.073-139.415 230.392-2.992 21.574-4.654 70.077-5.882 95.578-1.422 2.909-10.305 21.793-12.046 43.023-1.285 15.663 1.327 32.559 13.347 45.445 12.697 13.612 36.066 22.862 77.073 20.952 3.942.198 123.455 5.946 174.565-19.889 11.632-5.88 19.777-13.426 22.635-22.851 2.836-9.349.553-20.687-9.132-34.313-1.715-8.562-29.428-147.725-30.574-206.728.178-3.07 4.45-85.817-47.365-129.285l-31.138-27.12a1.98 1.98 0 0 0-2.201-.268zm.868 3.867a2 2 0 0 0 .648-.201l8.965-4.601 30.141 26.251.029.024c51.447 43.144 45.97 126.101 45.97 126.101a2 2 0 0 0-.004.166c1.163 61.047 30.736 207.925 30.736 207.925.055.275.168.535.332.763 8.936 12.445 11.392 22.693 8.809 31.208-2.583 8.517-10.124 15.156-20.636 20.47-51.371 25.967-172.674 19.465-172.674 19.465a2 2 0 0 0-.197-.001c-39.373 1.849-61.909-6.635-74.092-19.695-11.21-12.018-13.497-27.819-12.298-42.426 1.83-22.312 11.822-41.942 11.822-41.942a2 2 0 0 0 .213-.801c1.226-25.293 2.872-74.026 5.869-95.638v-.001c29.438-212.801 136.367-227.067 136.367-227.067" style="fill:#464646"/><path d="M2137.64 923.121s-134.825-83.033-105.368 148.27c0 0 27.037 245.621-46.99 275.584 0 0 314.663 268.75 452.519 199.578 0 0 169.97-50.773 58.265-147.247 0 0-55.619-55.606 18.18-91.016s86.666-165.1-64.76-129.644c0 0-88.414 22.981-95.682-70.468 0 0 1.363-334.385-216.164-185.057" style="fill:#212062"/><path d="M2137.56 920.781c-4.217-2.41-19.857-10.769-38.105-13.361-14.497-2.06-30.601-.479-44.054 10.315-11.093 8.9-20.439 24.127-25.419 49.028-4.888 24.438-5.597 58.326.328 104.86.17 1.555 13.11 120.506-4.165 202.203-3.692 17.465-8.763 33.218-15.668 45.709-6.745 12.201-15.218 21.27-25.934 25.607a1.977 1.977 0 0 0-.543 3.337s154.481 131.919 294.537 187.308c60.444 23.905 118.241 33.471 160.004 12.608 2.432-.744 31.243-9.75 56.84-26.686 18.091-11.971 34.511-27.92 39.285-47.586 5.116-21.074-2.961-46.631-37.248-76.264-.727-.741-9.732-10.062-15.253-23.133-3.775-8.937-5.935-19.655-2.503-30.568 3.722-11.834 13.986-23.791 35.442-34.085 27.126-13.016 46.182-38.513 52.259-64.122 4.099-17.278 2.299-34.6-6.761-48.277-14.902-22.501-49.788-35.418-111.565-20.954l-.047.012s-42.237 11.053-69.999-13.601c-11.903-10.569-21.068-27.715-23.208-55.028.003-2.852-.145-78.556-23.541-141.268-16.098-43.153-43.235-80.058-88.426-83.781-27.861-2.295-62.724 8.056-106.256 37.727m-.955 4.024c.666.41 1.511.389 2.156-.054 42.995-29.515 77.299-40.015 104.73-37.756 43.628 3.595 69.504 39.562 85.046 81.222 23.612 63.293 23.292 139.953 23.292 139.953q0 .08.006.161c2.232 28.711 12.028 46.655 24.53 57.757 28.845 25.615 72.509 14.753 73.599 14.477 59.346-13.892 93.022-2.328 107.342 19.292 8.475 12.796 10.044 29.017 6.209 45.181-5.827 24.554-24.112 48.989-50.122 61.469-22.824 10.952-33.544 23.876-37.503 36.465-3.737 11.883-1.478 23.561 2.632 33.292 6.071 14.374 16.148 24.44 16.148 24.44q.05.051.106.098c32.687 28.231 40.92 52.315 36.047 72.388-4.551 18.748-20.377 33.809-37.625 45.221-26.257 17.374-55.961 26.247-55.961 26.247a2 2 0 0 0-.321.128c-40.94 20.542-97.616 10.779-156.925-12.676-129.357-51.158-271.05-167.868-291.032-184.621 7.945-3.938 14.722-10.354 20.46-18.7 9.416-13.697 16.05-32.646 20.595-54.145 17.496-82.744 4.225-203.469 4.225-203.469l-.004-.033c-5.855-45.978-5.204-79.459-.375-103.604 4.736-23.685 13.464-38.253 24.015-46.719 12.52-10.044 27.533-11.401 41.024-9.484 20.577 2.923 37.706 13.47 37.706 13.47" style="fill:#464646"/><path d="M2034.17 1037.85c50.807-27.302 71.889-70.536 83.988-116.806-3.4-1.763-9.745-7.266-27.234-7.778-32.306-.955-45.008 27.484-47.6 32.772-11.827 24.096-10.564 58.017-9.154 91.812" style="fill:#302f71"/><path d="M1955.1 1394.56s-14.432-9.256-26.435-18.763c-3.736-2.956-9.164-6.572-10.152-11.075-4.599-21.037-3.895-33.659-4.349-42.358 0 0-4.406-2.036-5.53 4.002-1.295 6.971.601 24.255-.716 59.813l-38.12 52.604 25.05-18.626 38.779 10.223z" style="fill:#ffb45a"/><path d="M1956.8 1395.58a1.977 1.977 0 0 0-.628-2.681s-14.346-9.2-26.276-18.649c-1.828-1.446-4.072-3.05-5.977-4.846-1.639-1.545-3.055-3.208-3.471-5.103-4.564-20.877-3.855-33.404-4.306-42.038a1.98 1.98 0 0 0-1.145-1.691s-2.445-1.113-4.776-.006c-1.391.661-2.906 2.106-3.527 5.441v.001c-1.294 6.965.555 24.177-.726 59.5l-37.767 52.118a1.978 1.978 0 0 0 2.78 2.747l24.287-18.059 37.859 9.981a1.98 1.98 0 0 0 2.2-.896zm-4.371-.399-19.73 32.911-37.343-9.844a1.98 1.98 0 0 0-1.684.325l-14.704 10.933 30.555-42.163c.23-.318.361-.696.375-1.087 1.311-35.387-.605-52.588.683-59.525.28-1.5.711-2.296 1.337-2.593a1.4 1.4 0 0 1 .344-.112c.326 8.703-.043 21.147 4.323 41.121l.001.001c.466 2.125 1.727 4.108 3.407 5.915 2.203 2.371 5.136 4.457 7.449 6.288 9.658 7.65 20.882 15.139 24.987 17.83" style="fill:#464646"/><path d="m1640.17 1235.99 32.59-27.837 239.693-6.027v178.28l-17.601 75.721s-223.137-15.738-227.917-17.341c-4.781-1.592-26.765-202.796-26.765-202.796" style="fill:#c78500"/><path d="M1638.88 1234.49a1.98 1.98 0 0 0-.682 1.718s17.831 163.132 24.884 196.92c.692 3.316 1.346 5.488 1.829 6.32.445.769.999 1.085 1.39 1.216.982.327 10.845 1.281 26.006 2.515 59.577 4.85 202.4 14.924 202.4 14.924a1.98 1.98 0 0 0 2.065-1.525l17.601-75.722q.051-.22.051-.447v-178.28a1.974 1.974 0 0 0-2.027-1.976l-239.693 6.027a1.97 1.97 0 0 0-1.234.473zm29.3 202.547a26 26 0 0 1-.659-2.19c-.888-3.612-1.997-9.898-3.257-18.062-7.648-49.546-20.672-167.674-22.021-179.968l31.262-26.702 236.965-5.958v176.025l-17.168 73.857c-16.188-1.144-144.907-10.261-200.674-14.802-12.998-1.058-21.963-1.822-24.448-2.2" style="fill:#464646"/><path d="m1640.17 1235.99 10.969 220.137h243.713v-224.594z" style="fill:#d4981f"/><path d="M1640.13 1234.01a1.98 1.98 0 0 0-1.94 2.075l10.969 220.138a1.977 1.977 0 0 0 1.975 1.878h243.713a1.977 1.977 0 0 0 1.977-1.977V1231.53a1.98 1.98 0 0 0-2.012-1.977zm2.111 3.918 250.629-4.386v220.605h-239.855z" style="fill:#464646"/><path d="M1738.11 1353.6v-119.922l22.723-27.587 51.759-1.535-23.495 28.713.59 120.729-22.007-10.769z" style="fill:#f1ae27"/><path d="M1736.13 1353.6a1.978 1.978 0 0 0 2.632 1.866l28.789-10.097 21.264 10.405a1.98 1.98 0 0 0 2.847-1.786l-.587-120.018 23.044-28.162a1.978 1.978 0 0 0-1.589-3.228l-51.759 1.535a1.98 1.98 0 0 0-1.467.719l-22.723 27.587a1.98 1.98 0 0 0-.451 1.257zm3.955-2.789v-116.424l21.701-26.346 46.525-1.38-20.747 25.356c-.292.355-.45.802-.447 1.261l.575 117.543-19.146-9.368a1.98 1.98 0 0 0-1.523-.09z" style="fill:#464646"/><path d="m2212.04 2476.37-102.699 125.733s-66.623 61.462 77.558 42.824c0 0 58.629-29.963 73.754-89.185l-.124 76.176 38.063 2.673s30.751-81.487 21.564-121.73c0 0-33.862-66.693-56.868-67.409z" style="fill:#be5d54"/><path d="M2211.02 2474.68a2 2 0 0 0-.51.442l-102.617 125.632c-1.01.954-9.11 8.768-13.304 17.812-3.218 6.937-4.101 14.539 1.236 20.643 3.388 3.875 9.445 7.214 19.473 9.196 14.28 2.822 36.943 2.999 71.856-1.514.225-.029.444-.097.646-.2 0 0 51.261-26.222 70.855-78.066l-.103 63.293a1.98 1.98 0 0 0 1.839 1.976l38.064 2.672a1.98 1.98 0 0 0 1.988-1.274s11.122-29.471 18.026-61.781c4.646-21.743 7.343-44.763 3.616-61.087a2 2 0 0 0-.165-.455s-16.738-32.943-34.731-52.96c-8.086-8.994-16.543-15.303-23.839-15.531a2 2 0 0 0-1.083.284zm2.336 3.209 50.431-30.426c2.298.194 4.702 1.125 7.176 2.576 4.345 2.548 8.848 6.678 13.285 11.614 16.853 18.748 32.57 49.033 34.035 51.888 3.542 15.858.813 38.112-3.681 59.144-5.965 27.916-15.108 53.694-17.349 59.832l-34.743-2.439.122-74.33a1.976 1.976 0 0 0-3.893-.492c-14.287 55.937-67.959 85.383-72.44 87.757-34.098 4.389-56.254 4.275-70.234 1.512-8.844-1.748-14.275-4.501-17.263-7.919-4.229-4.837-3.176-10.879-.626-16.377 4.171-8.994 12.506-16.67 12.506-16.67q.103-.094.191-.202z" style="fill:#464646"/><path d="m2728.95 1898.02 160.021-26.598s90.56-2.151-30.05-83.43c0 0-63.796-16.232-114.188 18.268l50.295-57.151-26.838-27.162s-76.804 40.902-96.423 77.209c0 0-18.509 72.486-1.696 88.227z" style="fill:#be5d54"/><path d="M2728.6 1899.97c.223.04.452.042.676.005l159.891-26.577c1.39-.05 12.625-.568 21.736-4.591 6.991-3.087 12.666-8.215 12.679-16.329.008-5.15-2.343-11.66-8.57-19.776-8.869-11.557-25.78-26.667-54.984-46.347a2 2 0 0 0-.618-.277s-55.797-14.174-104.687 11.83l41.791-47.489a1.98 1.98 0 0 0-.078-2.698l-26.837-27.162a1.98 1.98 0 0 0-2.338-.356s-27.778 14.793-54.258 34.507c-17.82 13.266-35.017 28.78-42.976 43.508a2 2 0 0 0-.176.451s-9.134 35.812-8.806 62.742c.148 12.1 2.343 22.428 7.675 27.42.278.26.625.435 1 .502zm.366-3.955-57.941-10.467c-1.6-1.664-2.792-3.953-3.695-6.679-1.585-4.786-2.247-10.866-2.328-17.506-.307-25.222 7.843-58.363 8.623-61.478 7.789-14.254 24.505-29.17 41.741-42.001 22.875-17.03 46.727-30.353 52.462-33.487l24.497 24.793-49.076 55.766a1.977 1.977 0 0 0 2.603 2.94c47.595-32.585 107.322-19.241 112.255-18.063 28.511 19.237 45.083 33.964 53.765 45.278 5.494 7.159 7.76 12.817 7.753 17.361-.011 6.427-4.782 10.27-10.32 12.715-9.06 4.001-20.38 4.26-20.38 4.26a2 2 0 0 0-.277.026z" style="fill:#464646"/><path d="m2156.21 2019.59 155.378-49.488-35.202 496.63c-12.889 55.902-95.807 67.25-95.807 67.25l39.04-71.139zm227.361 8.426 136.266-42.972 180.713-138.025c81.328-24.687 109.444 21.139 109.444 21.139l-76.309 28.156-113.839 186.443c-127.58 171.992-236.275-54.741-236.275-54.741" style="fill:#ffb45a"/><path d="M2155.61 2017.7a1.98 1.98 0 0 0-1.357 2.164l63.316 442.6-38.723 70.561a1.977 1.977 0 0 0 2.001 2.91s30.23-4.136 57.233-19.673c18.23-10.49 34.946-26.161 40.233-49.091q.034-.15.045-.305l35.202-496.63a1.976 1.976 0 0 0-2.572-2.024zm2.794 3.26 151.006-48.095-34.985 493.566c-5.063 21.709-21.034 36.458-38.317 46.403-20.509 11.801-42.927 16.858-51.833 18.516l37.078-67.561c.206-.376.284-.808.224-1.232zm224.572 5.164a1.978 1.978 0 0 0-1.188 2.741s19.302 40.268 51.211 74.149c21.452 22.778 48.6 42.615 79.35 45.729 32.953 3.336 70.217-12.415 109.085-64.814q.053-.07.099-.147l113.481-185.857 75.665-27.918a1.98 1.98 0 0 0 1.001-2.889s-28.638-47.212-111.705-21.997a2 2 0 0 0-.626.321l-180.437 137.814zm3.396 3.076 134.06-42.276a2 2 0 0 0 .606-.315l180.427-137.807c69.047-20.828 98.841 10.043 105.404 18.396l-73.868 27.255a1.98 1.98 0 0 0-1.004.824l-113.792 186.368c-37.661 50.74-73.527 66.396-105.458 63.163-29.823-3.019-56.063-22.414-76.869-44.506-27.244-28.927-45.175-62.573-49.506-71.102" style="fill:#464646"/><path d="M2168.93 1221.33s-42.662-41.789-108.911 149.897l-131.588 4.003-7.063 69.353s116.463 40.107 198.313 15.397c70.541-21.287 114.192-94.473 49.249-238.65" style="fill:#ba4e4e"/><path d="M2170.73 1220.52a2 2 0 0 0-.419-.6s-4.296-4.314-12.363-4.416c-5.071-.063-11.734 1.545-19.781 7.285-18.997 13.549-46.413 50.932-79.573 146.505l-130.226 3.961a1.98 1.98 0 0 0-1.907 1.776l-7.063 69.354a1.98 1.98 0 0 0 1.323 2.07s117.179 40.281 199.529 15.42c28.718-8.666 53.038-25.81 67.676-52.623 21.775-39.884 22.132-101.421-17.196-188.732m-3.429 2.017c38.427 85.494 38.495 145.731 17.154 184.82-14.126 25.875-37.634 42.369-65.348 50.732-75.956 22.931-181.896-10.36-195.614-14.877l6.727-66.057 129.856-3.95a1.98 1.98 0 0 0 1.809-1.33c32.888-95.159 59.766-132.45 78.578-145.867 7.11-5.071 12.955-6.606 17.436-6.549 5.288.066 8.523 2.364 9.401 3.077z" style="fill:#464646"/><path d="M2152.73 1212.81s-93.115 114.338-52.088 173.378c0 0 22.541 101.546 11.583 147.532 0 0-126.739 412.198-209.884 514.892l-32.545 46.009s315.332 117.863 504.367 90.731c112.273-16.124 131.941-158.982 146.09-201.147 0 0-122.459-184.465-147.657-288.967 0 0-5.814-31.738-15.772-71.833-12.423-50.068-31.296-113.178-53.303-143.847 0 0 3.577-105.264-1.67-142.755-4.042-28.849-13.547-58.153-29.819-82.135-16.273-23.982-39.847-47.487-67.838-61.758z" style="fill:#e15252"/><path d="M2152.02 1210.96c-.32.124-.603.329-.82.595 0 0-33.72 41.412-51.784 87.37-12.171 30.967-17.112 63.969-.617 88.062 1.471 6.724 21.99 102.083 11.522 146.2-1.767 5.743-127.067 412.343-209.514 514.175l-.078.103-32.545 46.008a1.976 1.976 0 0 0 .922 2.994s315.945 118.02 505.341 90.837c56.868-8.168 90.352-48.347 111.341-91.908 20.764-43.092 29.252-89.44 36.342-110.568a1.98 1.98 0 0 0-.227-1.722s-122.196-183.995-147.369-288.286c-.274-1.486-6.054-32.706-15.788-71.897-12.41-50.013-31.278-112.959-53.225-143.974.292-9.019 3.305-106.597-1.709-142.426v-.001c-4.084-29.144-13.702-58.743-30.141-82.97-16.447-24.24-40.285-47.985-68.576-62.409a1.97 1.97 0 0 0-1.611-.083zm1.921 3.497 50.141-19.389c27.348 14.156 50.371 37.203 66.317 60.704 16.105 23.736 25.496 52.746 29.497 81.299 5.234 37.402 1.652 142.414 1.652 142.414a1.98 1.98 0 0 0 .369 1.22c21.901 30.52 40.628 93.345 52.99 143.17l.001.001c9.942 40.028 15.747 71.712 15.747 71.712q.01.054.022.107c24.281 100.699 138.646 275.506 147.4 288.794-6.999 21.439-15.471 66.895-35.851 109.191-20.45 42.44-52.936 81.752-108.341 89.709-179.025 25.695-471.53-78.964-500.983-89.738l31.019-43.851c83.258-102.916 210.197-515.505 210.197-515.505q.019-.062.033-.123c11.024-46.26-11.575-148.418-11.575-148.418a2 2 0 0 0-.307-.7c-16.06-23.111-10.887-54.879.828-84.683 16.813-42.776 47.36-81.563 50.843-85.913z" style="fill:#464646"/><path d="M2365.3 1660.18c4.701 21.378 7.301 35.558 7.301 35.558 25.198 104.502 147.657 288.968 147.657 288.968-14.149 42.165-33.817 185.022-146.09 201.147-12.502 1.785-25.55 2.945-39.04 3.548-5.258-28.872-10.958-69.308-17.283-125.642-22.393-199.578 37.973-290.412 47.455-403.579" style="fill:#ba4e4e"/><path d="M1946.51 1463.29s-61.649 12.577-51.656-71.946c0 0-16.25-23.254-25.05 39.811 0 0-24.222 34.989-63.285 31.362l-22.711.83s-29.649 45.86 85.996 15.42l70.438 23.242s5.405-38.309 6.268-38.719" style="fill:#ffb45a"/><path d="M1948.22 1464.28a1.976 1.976 0 0 0-2.109-2.924s-21.17 4.343-36.042-9.612c-10.108-9.485-17.141-27.298-13.256-60.165a1.98 1.98 0 0 0-.342-1.365s-3.559-4.927-8.422-5.032c-3.116-.067-7.041 1.687-10.707 8.643-3.373 6.401-6.756 17.608-9.433 36.577-2.685 3.679-25.588 33.457-61.211 30.149a2 2 0 0 0-.255-.007l-22.711.83a1.98 1.98 0 0 0-1.588.903s-5.717 9.016-2.935 16.946c1.828 5.211 7.249 10.274 20.823 11.608 13.323 1.31 34.998-.902 69.705-10.001-.001.001 69.881 23.06 69.881 23.06a1.978 1.978 0 0 0 2.578-1.601s3.451-24.463 5.272-34.457c.293-1.606.662-3.18.752-3.552m-4.363 1.371c-1.43 7.335-4.273 26.963-5.243 33.743l-68.195-22.502a2 2 0 0 0-1.123-.035c-34.349 9.042-55.745 11.329-68.877 10.039-11.189-1.1-15.972-4.686-17.478-8.982-1.757-5.007.847-10.537 2.01-12.627l21.51-.787c40.091 3.642 64.964-32.217 64.964-32.217a2 2 0 0 0 .333-.852c3.423-24.528 7.829-35.68 12.094-40.169 1.469-1.545 2.844-2.154 4.112-2.126 2.271.049 4.048 1.831 4.83 2.773-3.895 34.244 3.963 52.767 14.569 62.719 12.734 11.948 29.665 11.706 36.494 11.023" style="fill:#464646"/><path d="M2255.76 1268.04s-63.625-52.978-103.029 182.294c0 0-40.596-10.587-61.399-11.542-41.539-1.899-187.832.114-187.832.114l-8.653 68.91s336.476 65.351 360.913 18.581c0 0 63.273-196.69 0-258.357" style="fill:#ba4e4e"/><path d="M2257.14 1266.62a2 2 0 0 0-.115-.103s-16.989-14.369-39.215 2.877c-20.86 16.186-46.868 61.555-66.672 178.489-8.597-2.168-41.607-10.239-59.715-11.07h-.001c-41.564-1.9-187.949.112-187.949.112a1.98 1.98 0 0 0-1.935 1.73l-8.653 68.91a1.98 1.98 0 0 0 1.585 2.188s165.067 32.053 272.498 35.228c27.812.822 51.787-.302 68.113-4.37 11.508-2.866 19.307-7.322 22.432-13.303q.078-.149.129-.31s22.854-71.048 27.425-141.252c3.079-47.277-2.274-94.124-27.927-119.126m-2.692 2.898c24.906 24.349 29.666 70.001 26.673 115.971-4.412 67.766-25.978 136.323-27.19 140.132-2.797 5.167-9.811 8.663-19.806 11.153-16.068 4.003-39.667 5.063-67.04 4.254-100.592-2.972-251.829-31.333-270.045-34.809l8.207-65.363c16.51-.218 147.13-1.87 185.994-.093 20.666.949 60.991 11.48 60.991 11.48a1.976 1.976 0 0 0 2.449-1.587c19.557-116.766 44.876-162.093 65.553-178.138 18.782-14.573 33.254-3.75 34.211-3.002z" style="fill:#464646"/><path d="M2114.93 976.973s-15.276 51.125-64.884 68.478c0 0-11.136 157.288 96.027 126.892l1.715 40.641s-12.101 62.69 65.97-5.128l3.591-66.829.308-16.932s36.972 19.194 38.097-20.867c0 0-2.492-49.078-48.375-18.978 0 0-79.049 30.93-92.449-107.277" style="fill:#ffb45a"/><path d="M2116.9 976.782a1.976 1.976 0 0 0-3.86-.375s-14.98 50.156-63.644 67.179a1.97 1.97 0 0 0-1.318 1.725s-2.807 39.692 7.905 75.55c6.529 21.858 18.103 42.242 38.108 51.742 12.866 6.11 29.253 7.765 50.115 2.299l1.601 37.949c-.246 1.427-1.429 9.059.123 15.929 1.252 5.539 4.25 10.529 10.395 12.093 3.857.982 9.091.585 16.128-2.235 9.888-3.963 23.626-12.805 42.603-29.291.405-.351.649-.851.678-1.385l3.591-66.829.003-.07.253-13.936c2.729 1.121 7.149 2.665 12.004 3.274 5.573.699 11.68.146 16.601-3.395 5.177-3.724 9.184-10.825 9.547-23.722q.001-.078-.002-.156s-.332-6.653-3.003-13.698c-1.833-4.834-4.768-9.822-9.344-13.108-7.478-5.371-19.576-6.466-38.901 6.154-2.406.875-28.408 9.665-51.969-9.567-16.861-13.762-32.331-41.641-37.614-96.127m-3.039 8.578c6.169 50.7 21.667 77.153 38.154 90.61 26.59 21.704 56.087 10.12 56.087 10.12a2 2 0 0 0 .364-.188c17.276-11.334 27.943-11.16 34.613-6.37 3.927 2.82 6.38 7.15 7.954 11.299 2.275 6.002 2.7 11.689 2.746 12.419-.326 11.095-3.441 17.34-7.901 20.548-4.083 2.938-9.177 3.262-13.801 2.682-7.29-.915-13.506-4.139-13.506-4.139a1.975 1.975 0 0 0-2.886 1.718l-.308 16.897-3.544 65.956c-18.169 15.717-31.323 24.24-40.85 28.058-5.981 2.397-10.404 2.908-13.683 2.074-4.558-1.161-6.586-5.027-7.515-9.135-1.549-6.854-.054-14.55-.054-14.55q.043-.227.034-.458l-1.715-40.641a1.978 1.978 0 0 0-2.514-1.818c-20.85 5.914-37.099 4.599-49.75-1.409-19.008-9.027-29.812-28.535-36.017-49.303-9.388-31.43-8.188-65.862-7.824-72.859 37.557-13.71 55.45-46.452 61.915-61.511z" style="fill:#464646"/><path d="M2148.85 1172.11c.137-.182.284-.375.421-.546 17.305-3.9 21.473-3.127 53.121-28.053-1.011 11.201-8.415 32.67-17.374 42.915-16.352 18.718-27.401 25.108-34.691 26.382a44 44 0 0 1 .193-1.206z" style="fill:#f9a643"/><path d="m1344.14 1444.79 278.782-33.319 1.762-58.566s21.902-18.644 29.643 51.83c0 0 8.488 41.712 45.137 37.275 0 0 81.735-11.668 85.592-13.994 0 0 28.001 29.136-65.518 53.06 0 0-26.733 9.89-76.116-6.616 0 0-249.326 126.647-350.653 111.411 0 0-88.701-11.681-82.948-147.122z" style="fill:#ffb45a"/><path d="M1784.08 1426.29c-.039.013-.559.196-1.034.323-1.737.463-4.79 1.08-8.727 1.798-22.606 4.125-73.908 11.458-75.111 11.63-17.373 2.095-28.063-6.761-34.42-16.124-6.122-9.018-8.291-18.512-8.506-19.501-3.166-28.744-8.767-42.919-14.197-49.623-3.681-4.546-7.399-5.943-10.471-6.093-4.803-.234-8.21 2.691-8.21 2.691a1.98 1.98 0 0 0-.695 1.445l-1.71 56.865-276.931 33.098-134.158-6.034a1.974 1.974 0 0 0-2.063 1.891c-2.328 54.807 10.712 89.563 27.102 111.562 24.847 33.349 57.53 37.6 57.563 37.604 30.591 4.595 74.618-3.598 121.246-17.41 103.32-30.605 219.526-88.64 229.823-93.826 47.96 15.839 74.704 7.017 76.542 6.371 28.333-7.254 45.616-15.018 55.947-22.285 10.18-7.16 13.827-13.984 14.68-19.488 1.356-8.746-4.268-14.546-4.268-14.546a1.974 1.974 0 0 0-2.402-.348m-440.028 20.465q.162.007.324-.012l278.782-33.319a1.976 1.976 0 0 0 1.741-1.903l1.732-57.583c.898-.554 2.634-1.394 4.79-1.289 2.255.11 4.89 1.295 7.592 4.632 5.204 6.425 10.321 20.087 13.35 47.66q.01.09.028.179s8.987 43.483 47.312 38.843l.042-.005s52.362-7.476 75.284-11.658c4.186-.763 7.44-1.469 9.337-1.997.937 1.32 2.459 3.98 2.627 7.523.17 3.584-1.078 8.01-5.465 12.911-7.958 8.891-25.684 19.002-62.479 28.415a2 2 0 0 0-.196.061s-26.265 9.587-74.803-6.637a1.98 1.98 0 0 0-1.522.113s-121.992 61.97-229.893 93.932c-45.985 13.622-89.386 21.825-119.571 17.287l-.036-.006s-31.161-4.172-54.908-36.045c-15.816-21.228-28.286-54.648-26.401-107.053z" style="fill:#464646"/><path d="M1230.17 1224.73s58.845 3.836 80.186 75.499l33.78 144.557s-79.158 37.769-141.059 36.246c0 0-64.264-231.684 27.093-256.302" style="fill:#ba6300"/><path d="M1230.3 1222.76a2 2 0 0 0-.643.064c-28.13 7.581-42.105 34.134-47.578 67.81-12.497 76.898 19.094 190.929 19.094 190.929a1.98 1.98 0 0 0 1.856 1.448c62.292 1.533 141.959-36.438 141.959-36.438a1.98 1.98 0 0 0 1.074-2.234l-33.78-144.557-.031-.114c-21.777-73.128-81.951-76.908-81.951-76.908m.055 3.972c4.569.431 58.071 6.883 78.09 74.005l33.402 142.939c-10.844 5.003-80.867 36.23-137.249 35.411-3.548-13.262-30.19-116.603-18.616-187.819 5.17-31.814 17.912-57.223 44.371-64.536z" style="fill:#464646"/><path d="M1370.23 910.463s-18.364 116.356-88.193 146.107c0 0-8.582-39.441-33.807-11.187 0 0-19.192 27.826 10.437 35.337l-19.086 27.466s5.312 7.618 13.867 13.244l2.79 66.679s40.773 40.108 63.503 24.899c0 0 8.088-3.555 5.258-21.398l-6.019-5.372.027-44.332s63.022 16.318 83.509.895 62.835-91.524 39.238-175.67z" style="fill:#ffb45a"/><path d="M1371.46 908.914a1.976 1.976 0 0 0-3.18 1.241s-6.566 41.585-26.792 81.235c-13.033 25.549-31.73 50.34-58.129 62.435-.771-2.653-2.304-7.15-4.769-11.215-2.717-4.48-6.574-8.363-11.6-9.219-5.22-.89-11.983 1.436-20.233 10.676a2 2 0 0 0-.152.194s-3.571 5.169-5.396 11.753c-1.267 4.575-1.668 9.803.317 14.527 1.911 4.548 6.023 8.73 13.947 11.314l-17.513 25.203a1.98 1.98 0 0 0 .002 2.258s5.165 7.419 13.556 13.196l2.747 65.679c.021.501.231.975.589 1.327 0 0 14.917 14.667 31.838 23.066 11.725 5.82 24.389 8.497 34.019 2.153 1.239-.606 9.128-5.238 6.242-23.436a1.97 1.97 0 0 0-.636-1.165l-5.358-4.783.025-40.929c7.861 1.865 33.04 7.375 54.499 6.962 11.429-.221 21.81-2.177 28.224-7.006 8.35-6.286 20.332-22.422 30.084-45.062 14.5-33.66 24.168-81.728 9.869-132.721a2 2 0 0 0-.676-1.016zm.14 5.154 68.425 54.213c13.766 49.753 4.29 96.616-9.864 129.473-9.389 21.796-20.793 37.416-28.832 43.468-5.879 4.426-15.446 6.009-25.922 6.211-25.315.488-55.903-7.441-55.903-7.441a1.978 1.978 0 0 0-2.472 1.912l-.027 44.332c0 .564.24 1.101.661 1.476l5.488 4.899c2.233 15.365-4.207 18.587-4.207 18.587a2 2 0 0 0-.304.167c-8.538 5.713-19.768 2.853-30.194-2.322-14.496-7.196-27.47-19.149-30.267-21.809l-2.757-65.886a1.97 1.97 0 0 0-.888-1.569c-6.295-4.14-10.766-9.4-12.516-11.637l18.271-26.294a1.976 1.976 0 0 0-1.137-3.044c-8.06-2.043-12.228-5.614-13.985-9.795-1.631-3.882-1.193-8.18-.151-11.939 1.5-5.412 4.306-9.763 4.773-10.465 6.848-7.641 12.194-10.057 16.534-9.317 3.916.667 6.767 3.882 8.884 7.372 3.455 5.698 4.897 12.33 4.897 12.33a1.978 1.978 0 0 0 2.706 1.398c28.356-12.081 48.409-38.174 62.197-65.202 17.106-33.535 24.578-68.437 26.59-79.118" style="fill:#464646"/><path d="M1445.8 1012.62c-28.173 4.822-65.726 10.075-78.319 6.437-8.981-2.604-21.219-5.299-32.313-7.54 9.984-15.988 17.477-33.59 22.965-49.556h42.383l42.793 24.062a198 198 0 0 1 2.491 26.597m-129.56 130.6-.01 36.57c-5.229-1.012-8.114-1.41-12.03-7.528-4.75-7.414-15.238-34.284-18.53-49.704 14.353 10.871 15.405 11.474 30.57 20.662" style="fill:#f9a643"/><path d="M1440.6 961.972s85.885 1.737 98.831 28.895c0 0-21.101-5.065-39.973 0-21.955 5.881-51.851 26.396-111.59 7.966-7.42-2.286-27.133-7.592-35.582-7.966l.774-.254c-44.51 2.539-143.234-14.875-143.234-14.875-12.559-132.395 104.516-135.629 104.516-135.629 147.306-18.15 126.258 121.863 126.258 121.863" style="fill:#e15252"/><path d="M1351.48 992.672c.221.099.464.158.719.17 8.332.369 27.769 5.626 35.087 7.88 60.321 18.609 90.515-2.008 112.684-7.946h.001c18.412-4.942 38.999.013 38.999.013a1.975 1.975 0 0 0 2.246-2.773c-4.067-8.531-14.896-14.834-28.22-19.243-25.889-8.568-61.121-10.377-70.168-10.71.731-6.691 2.324-27.727-3.2-50.559-4.499-18.595-13.713-38.354-31.829-52.629-19.296-15.205-48.756-24.249-93.612-18.738-2.662.1-59.044 2.749-88.982 48.842-13.093 20.159-21.17 48.649-17.347 88.945a1.976 1.976 0 0 0 1.624 1.76s96.579 17.016 141.998 14.988m2.769-3.638a1.97 1.97 0 0 0-1.301-.394c-41.16 2.348-128.824-12.439-141.292-14.59-3.376-38.349 4.31-65.588 16.864-84.917 29.558-45.508 85.877-47.048 85.877-47.048a2 2 0 0 0 .187-.014c43.479-5.357 72.073 3.177 90.768 17.909 17.355 13.675 26.123 32.64 30.433 50.453 6.511 26.907 2.861 51.245 2.861 51.245a1.976 1.976 0 0 0 1.914 2.27s41.744.832 71.194 10.578c10.126 3.351 18.818 7.681 23.564 13.541-7.372-1.21-22.463-2.842-36.371.891-21.741 5.823-51.339 26.237-110.496 7.986h-.001c-7.017-2.162-24.881-6.966-34.201-7.91" style="fill:#464646"/><path d="M1440.6 961.897c-20.116-.568-27.53.444-56.425 5.458-6.947-22.697-9.119-37.138-6.675-65.76 1.706-20.002 13.76-41.937 27.985-44.018 44.792 34.057 35.456 101.943 35.115 104.32" style="fill:#ef7272"/><path d="M1440.54 963.875a1.98 1.98 0 0 0 2.014-1.697c.208-1.446 3.706-26.817-3.347-54.343-4.737-18.484-14.223-37.915-32.528-51.833a1.98 1.98 0 0 0-1.484-.383c-6.138.898-11.961 5.134-16.785 11.381-6.918 8.96-11.829 22.049-12.885 34.427-2.473 28.947-.272 43.552 6.754 66.507a1.98 1.98 0 0 0 2.231 1.371c28.693-4.98 36.054-5.995 56.03-5.43m-1.685-4.003c-18.538-.451-26.472.592-53.298 5.235-6.467-21.493-8.446-35.755-6.089-63.344.991-11.625 5.577-23.929 12.075-32.344 3.909-5.063 8.485-8.726 13.422-9.743 17.081 13.289 25.932 31.674 30.408 49.141 5.942 23.188 4.186 44.801 3.482 51.055" style="fill:#464646"/></g></svg>